<svg width="24" height="25" viewBox="0 0 24 25" fill="none" xmlns="http://www.w3.org/2000/svg">
<path d="M21.75 12.5001C21.7469 14.883 20.8726 17.1826 19.2917 18.9657C17.7109 20.7488 15.5326 21.8922 13.1671 22.1807C13.1145 22.1867 13.0611 22.1814 13.0107 22.1653C12.9602 22.1491 12.9137 22.1224 12.8743 22.087C12.8348 22.0516 12.8034 22.0082 12.782 21.9597C12.7605 21.9112 12.7496 21.8587 12.75 21.8057V14.7501H15C15.1028 14.7503 15.2045 14.7294 15.2989 14.6886C15.3933 14.6479 15.4783 14.5882 15.5487 14.5132C15.619 14.4382 15.6732 14.3495 15.7078 14.2527C15.7424 14.1559 15.7568 14.053 15.75 13.9504C15.7334 13.7576 15.6444 13.5781 15.5009 13.4482C15.3574 13.3183 15.1701 13.2475 14.9765 13.2501H12.75V11.0001C12.75 10.6023 12.908 10.2207 13.1893 9.93944C13.4706 9.65813 13.8521 9.5001 14.25 9.5001H15.75C15.8528 9.50032 15.9545 9.47941 16.0489 9.43865C16.1433 9.39789 16.2283 9.33816 16.2987 9.26316C16.369 9.18817 16.4232 9.09951 16.4578 9.0027C16.4924 8.9059 16.5068 8.803 16.5 8.70041C16.4834 8.50722 16.3941 8.32752 16.2502 8.19755C16.1063 8.06757 15.9185 7.99701 15.7246 8.0001H14.25C13.4543 8.0001 12.6912 8.31617 12.1286 8.87878C11.566 9.44139 11.25 10.2044 11.25 11.0001V13.2501H8.99996C8.89714 13.2499 8.79538 13.2708 8.70099 13.3115C8.60659 13.3523 8.52159 13.412 8.45126 13.487C8.38092 13.562 8.32676 13.6507 8.29213 13.7475C8.2575 13.8443 8.24315 13.9472 8.24996 14.0498C8.26655 14.243 8.35579 14.4227 8.49968 14.5527C8.64357 14.6826 8.8314 14.7532 9.02527 14.7501H11.25V21.8076C11.2503 21.8605 11.2394 21.9129 11.218 21.9613C11.1967 22.0097 11.1653 22.0531 11.126 22.0885C11.0866 22.1239 11.0403 22.1506 10.9899 22.1668C10.9395 22.183 10.8863 22.1884 10.8337 22.1826C8.40498 21.8868 6.1758 20.69 4.5874 18.829C2.99901 16.9681 2.16716 14.5786 2.25652 12.1335C2.44402 7.07104 6.54464 2.95541 11.6109 2.75854C12.9225 2.70773 14.231 2.92199 15.4579 3.3885C16.6848 3.85502 17.8051 4.5642 18.7516 5.47363C19.6981 6.38306 20.4515 7.47405 20.9667 8.68136C21.4819 9.88866 21.7483 11.1875 21.75 12.5001Z" fill="#58595B"/>
</svg>
