<svg width="51" height="50" viewBox="0 0 51 50" fill="none" xmlns="http://www.w3.org/2000/svg">
<path d="M42.2835 0.105247V7.51338H30.9756C28.3139 7.51338 26.0591 9.27578 25.2845 11.7071C24.5099 9.27578 22.255 7.51338 19.5934 7.51338H8.2218V0.105247H42.2835Z" fill="#38AA60"/>
<path d="M32.1198 43.4017L42.2835 29.8858V49.7592H8.2218V28.9939H19.5951C22.2568 28.9939 24.5116 27.2315 25.2862 24.8002C26.0608 27.2315 28.3157 28.9939 30.9773 28.9939H32.1198V43.4017Z" fill="#38AA60"/>
<path d="M49.3805 12.9575C49.0993 11.1399 47.5377 9.74492 45.6595 9.74492H30.9808C28.9046 9.74492 27.2157 11.4502 27.2157 13.5444V13.9922H23.3603V13.5444C23.3603 11.4502 21.6696 9.74492 19.5934 9.74492H4.91465C3.03648 9.74492 1.47665 11.1381 1.19369 12.9522C0.526956 12.9897 -0.00183105 13.5462 -0.00183105 14.2276V14.6646C-0.00183105 15.33 0.502197 15.8776 1.14771 15.9365V22.9629C1.14771 25.0571 2.83841 26.7624 4.91465 26.7624H19.5916C21.6678 26.7624 23.3585 25.0571 23.3585 22.9629V17.4902H27.2139V22.9629C27.2139 25.0571 28.9028 26.7624 30.9791 26.7624H34.3269V36.7713L41.859 26.7624H45.6578C47.734 26.7624 49.4247 25.0571 49.4247 22.9629V15.9258C50.0366 15.8348 50.5071 15.305 50.5071 14.6629V14.2258C50.5071 13.5676 50.0136 13.0271 49.3805 12.9558V12.9575ZM20.5713 22.9665C20.5713 23.5105 20.1328 23.9529 19.5916 23.9529H4.91465C4.37525 23.9529 3.93489 23.5123 3.93489 22.9665V13.5444C3.93489 13.0004 4.37348 12.5562 4.91465 12.5562H19.5916C20.131 12.5562 20.5713 12.9986 20.5713 13.5444V22.9665ZM46.6375 22.9665C46.6375 23.5105 46.1989 23.9529 45.6578 23.9529H40.3522L37.0504 29.0457V23.9529H30.9773C30.4379 23.9529 29.9993 23.5123 29.9993 22.9665V13.5444C29.9993 13.0004 30.4361 12.5562 30.9773 12.5562H45.656C46.1954 12.5562 46.6358 12.9986 46.6358 13.5444V22.9665H46.6375Z" fill="#38AA60"/>
</svg>
