<?xml version="1.0" encoding="UTF-8"?>
<svg id="Layer_1" xmlns="http://www.w3.org/2000/svg" version="1.1" viewBox="0 0 1400.5 566.7">
  <!-- Generator: Adobe Illustrator 29.0.0, SVG Export Plug-In . SVG Version: 2.1.0 Build 186)  -->
  <defs>
    <style>
      .st0 {
        fill: #4d4d4d;
      }

      .st1 {
        fill: #ffe8d6;
      }
    </style>
  </defs>
  <g>
    <path class="st1" d="M137.6,498.5c0-12.7,0-31.7,2.7-46.2,4.5-21.7,20.8-42.5,29.9-62.5,7.2-19,18.9-34.2,24.4-54.1,5.4-19,3.1-50.3,3.1-70.2s8.7-40.4,4.2-50.4c-12.7-25.3-35.1,19.6-36.2,30.8-12.7-36.6-48.7-5-41.6,7.2.9-20.8-27.2-13.3-32.6,1.8-7.4-15.1-34.1-15.1-37,3.9-22.6-11.8-39.6,22.4-41.4,42.3-1.8,19.9.6,33-.3,53.9-1.8,26.3-3.7,43.9,14.4,66.5,14.5,18.1,10.9,34.4,10.9,56.1v34.4c35.6.1,48.9.9,70.6-7.2-9.1-5.4-20.8-1.8-29.9-6.3h58.8Z"/>
    <g>
      <path class="st0" d="M97.5,424.2c-10.8-1.8-21.5-2.8-32.4-1.2-3.6.5-2.1,6,1.5,5.4,9.8-1.5,19.7-.5,29.4,1.2,3.5.6,5.1-4.8,1.5-5.4Z"/>
      <path class="st0" d="M203.3,208.4c-8.2-4.8-18.8.4-25.4,5.6-8.9,6.9-11.8,14.2-14.4,23.6-2.1-3.1-4.7-5.9-8.1-8.1-14.3-9.2-26.6,5.1-32.9,17.1-.7-1.1-1.4-2.2-2.2-3.1-9.8-11-23.7-6.1-31.3,4.5-4.1-4.5-9.7-7.1-17.5-6.4-13,1.2-18.1,6-19.6,16.6-2.5-1.6-5.3-2.4-8.4-1.9-14.5,2.3-27.1,13.9-30.7,27.5-2.5,9.4-1.5,19.8-1,29.4.7,14-.2,27.9-1,41.8-1.2,22.1-3.5,48.8,11.2,67.5,2.6,3.3,5.2,6.6,8.7,9.1,4.7,3.4,1.6,22,1.6,27.1-.3,16.4,0,32.5.9,48.8.2,3.6,5.8,3.6,5.6,0-1-20-1-39.7-.7-59.7,0-4,2.4-15.2-.7-18.3-7.9-7.9-13.7-13.1-17.9-23.9-7.2-18.7-3.5-41.9-2.4-61.4,1-17.6-.9-35.2.2-52.7.6-9.6,4.4-18.1,12.9-22.9,7.4-4.2,15.3-11.1,22-1.4,5.7,8.3,7.8,20.8,9.7,30.5,1.3,6.6,1.9,13.2,1.9,19.8,0,.6,0,1.3,0,1.9-2.2-1.9-5.5-1.9-8.1-.9-3.8,1.4-7,5.2-8.1,9.3-.3-.3-.5-.6-.8-1-3.5-5.1-4.5-12.2-6.3-18-2.7-9.1-9.4-16.3-12.8-25.1-1.3-3.3-6.7-1.9-5.4,1.5,2.1,5.4,5,10.3,7.7,15.3-2.8-1.2-5.5-3-7.7-5.2-2.6-2.5-6.6,1.5-4,4,4.2,4,9.5,7.2,15.3,8.2.8,1.8,1.5,3.6,2.2,5.5-3.9,0-8,0-11.7-1.3-3.4-1.2-4.9,4.2-1.5,5.4,4.6,1.7,9.9,1.5,14.7,1.5,0,0,.1,0,.2,0,1.8,5.9,4,11.4,8.3,16,6.6,7.2,15.7,4.1,20.3-2.5.6-.4,1.1-1,1.2-1.9.3-.6.6-1.2.8-1.8,1.2,2.2,2.7,4.3,4.3,6.2.2.4.2.8.4,1.2.5,1.1,1.3,1.4,2.2,1.4,4.7,4,10.5,5.2,16.2-1,1.3-1.4,2.4-3,3.5-4.6.9-.3,1.7-1,2-2.2,1.6,1.8,3.3,2.9,5.1,3.3-8.3,8.6-12.1,20.9-14,32.6-.6,3.5,4.8,5.1,5.4,1.5,1.7-10.3,4.4-20,11-28.3,8.7-11.1,21.6-12.3,34.5-14.4,7.9-1.3,12.8-3.6,16.2-7.1,2.4,2.2,4.8,4.5,7.1,6.8,2.6,2.6,6.5-1.4,4-4-2.6-2.5-5.1-5-7.8-7.5,2.1-4.1,3.3-9.2,4.5-15.6,0-.5,0-.9,0-1.3,3.2-7.5,5-15.8,6.1-22.2.3-2,.6-4,.8-6,3.9.6,7.9,1.1,11.9,1.1,3.6,0,3.6-5.6,0-5.6-3.9,0-7.7-.5-11.6-1.1,0-5.6-.7-11.1-2.4-16.3,3.7-13.9,6.7-23.1,20.3-30.8,11.9-6.7,16.5,4.9,13.6,14.4-2.3,7.5-4,15-5.1,22.8-4.5,31.5,1.9,63.2-6.9,94.2-8.1,28.3-31.7,48.5-42.9,75.3-10.7,25.4-10.2,53.9-11.3,81-.2,3.6,5.5,3.6,5.6,0,.8-18.7,1.2-37.8,4-56.4,3-20,14.2-37,25.4-53.2,9.9-14.4,19-28.6,24.7-45.2,6-17.4,5.7-36.8,5.7-54.9,0-20.9-.3-41.9,6.4-62,2.3-7.1,4.6-17.4-3.3-22.1ZM148.4,315.2c-.6-.3-1.2-.7-1.8-1.1.5-.2,1.1-.5,1.6-.8.4.5.8.9,1.2,1.3-.3.2-.6.4-.9.6ZM141.1,317.9c-.1-.1-.2-.2-.4-.3-.7-.4-1.3-1-2-1.5.3,0,.7,0,1.1-.1.7.6,1.4,1.2,2.1,1.7-.3,0-.5.1-.8.2ZM125.2,320.5c0,0-.1-.1-.2-.1-1.4-.6-2.6-1.4-3.8-2.3.4-.6.8-1.2,1.1-1.9,1.2,1.5,2.4,2.8,3.8,4.1-.3,0-.6.2-.9.2ZM133.1,319.1s0,0,0,0c0,0,0,0,0,0,0,0,0,0,0,0ZM152.7,310.1c.5-.5,1.1-1,1.6-1.5-.3.7-.7,1.4-1.1,2-.2-.2-.3-.3-.5-.5ZM146.4,307.3c-.5.4-.9.8-1.5,1.1-8.6,6-11.7,1.8-12.9-3.5.9-3.4,3.8-5.6,7.4-5.9,5.1-.4,7.4,3.7,7,8.2ZM127.8,258.3c-.6-1.9-1.2-3.8-2-5.5.7-1.7,1.6-3.4,2.6-5.1-.1.3-.2.7-.2,1.1,0,3.2-.2,6.4-.4,9.5ZM112.6,244c5,2.3,7.1,9.9,8.6,14.6,3,9.2,4.7,20,5,29.5.1,3.6-4.9,18.1-11.1,28.2-.4.3-.6.8-.8,1.2-.3.5-.6,1-.9,1.4-1.1-3.2-3.2-6-6.8-6.7-1.8-.4-3.6-.1-5.2.5,2-13.3.3-27.9-1.9-39.4-1.3-7-3.4-14.5-6.9-20.4,4.1-6.9,11.4-12.8,20-8.9ZM57.1,263.4c.5-10.5,3.2-14.9,14.5-16.1,15-1.5,19,12.6,21.9,24.4,2.9,12.1,2.7,24.9,2.1,37.2-.2,3.9-.7,7.2-1.6,10.6-2.7-3.2-7.2-4.7-12.3-3.7-5.4,1.1-8.7,4.7-9.9,9-.2-.6-.5-1.2-.6-1.9-.7-1.8-1.2-3.6-1.6-5.5.5-15.9-3.4-41.6-12.5-54.1ZM53.5,332.6c-2.4-3.2,1.3-7.7,4.3-8.8,2.7-1,3.5,1.1,3.8,3.4-1.8,3.7-4.7,6.2-8.1,5.4ZM76.8,330.6c-.9-4.2,1.3-7.9,5.9-9.2,4.9-1.4,8,1.2,8.4,5.5-.2.4-.3.7-.5,1.1-5.9,3-10.5,3.9-13.8,2.6ZM98.9,322.9c.1-.4.3-.8.4-1.2.4-.2.7-.5,1-1,1.1-1.9,2.8-3.2,5.1-3.1,2.6.1,3.2,4.3,3.4,6.2,0,.1,0,.2.1.4-3.6,3.2-7.1,3.5-10-1.3ZM163.2,271.7c-1.2,8.8-4.1,17.4-8.1,25.3-1,2-2.3,3.8-3.6,5.4-1.2-4.9-4.7-8.6-10.8-9-3.7-.3-7,1-9.6,3.2,0-.1,0-.3,0-.4,0,0,0,0,0,0,.3-1.5.6-2.8.6-3.8.2-3.3.2-7.3,0-11.4.5-.5.8-1.1.8-1.9,0-10.1,1.3-20.2,1.4-30.3,0-3.1-4.1-3.5-5.3-1.3,6.1-10.8,16.4-20.9,28.8-9.4,2,1.8,3.4,4.1,4.4,6.7-.2,1,.2,1.8.8,2.3,2.4,7.9,1.7,17.7.7,24.7Z"/>
      <path class="st0" d="M48,312.1c2.4-1.4,5.1-2,7.7-2.9,3.4-1.1,2-6.5-1.5-5.4-3.1,1-6.2,1.8-9.1,3.4-3.2,1.8-.3,6.6,2.8,4.9Z"/>
      <path class="st0" d="M75.9,306.2c3.8-.4,7.7-.5,11.5-.5,3.6,0,3.6-5.6,0-5.6-3.9,0-7.7,0-11.5.5-3.6.4-3.6,6,0,5.6Z"/>
      <path class="st0" d="M153,246.6c-3.7-.5-7.3-.5-11-.5-3.6,0-3.6,5.6,0,5.6,3.7,0,7.3,0,11,.5,3.6.5,3.5-5.2,0-5.6Z"/>
      <path class="st0" d="M123,466.2c.7.6,1.5,1.1,2.3,1.5,3.2,1.7,6-3.1,2.8-4.9-2.7-1.5-4.4-3.6-5.8-6.3-1.7-3.2-6.5-.4-4.9,2.8.5,1,1.1,1.9,1.8,2.8-2.2-.7-4.9,1.6-3.3,4,2.8,4.4,6.3,7.9,10.4,11,2.9,2.1,5.7-2.7,2.8-4.9-2.4-1.7-4.4-3.8-6.2-6.1Z"/>
      <path class="st0" d="M125.3,456.8c2.5,2.6,6.5-1.4,4-4-2.4-2.4-4.5-5-6.4-7.8-2-3-6.9-.2-4.9,2.8,2.2,3.2,4.5,6.2,7.2,9Z"/>
      <path class="st0" d="M95.1,393.8c-2.7,3-5.4,6.1-8,9.1-2.4,2.7,1.6,6.7,4,4,2.7-3,5.4-6,8-9.1,2.4-2.7-1.6-6.7-4-4Z"/>
    </g>
  </g>
  <g>
    <path class="st1" d="M354.2,356.3c0-36.4-13.1-73.6-15.6-109.2-.8-18.2.7-32.2,1.5-50.4.8-19.8,7.4-38.9,8.3-59.5.8-10.7-3.3-77.9,20.7-69.4.8,19.8-1.7,42.2,2.5,62,1.7-20.7,5.8-38.9,5.8-60.3s4-29.8,10.7-38.9c5-7.4,13.3-9.9,20.8,0-2.5-24.8,26.2-24.8,24.8,5,27.2-19.9,26.4,12.2,27.2,19.6.8,18.2,2.5,55.6,2.5,73s-3.4,29.5,1,37.9c2.8,5.4,12.2,5.9,18,16.7,8.3,16.5,5,42.2-1.7,59.5-8.3,19.8-14.9,36.6-27.3,55.4-10.8,16.4-13.2,40.5-12.4,60.3-23.1,0-47.1,3.3-71.1,3.3,9.1-2.5,18.2-3.3,26.5-7.4-12.4-.8-32.2,5-42.2,2.5h0Z"/>
    <g>
      <path class="st0" d="M477.5,171.2c-2.6-2.8-6.4-4.4-10.6-5.2-.2-33.7-1.6-67.9-4.4-101.5-.8-10.1.7-24.6-6.1-32.8-5.2-6.3-12.5-5.1-17.9-1.1,0-.4-.1-.8-.2-1.1,0-.4,0-.8,0-1.2,0-.6-.2-1.1-.5-1.5-1.8-8.1-6.3-16-15-16.7-10.8-.9-14.9,8.5-16.3,17.7-12.2-12.7-22.5,1.2-27.1,17.6-3.8,13.7-3.2,27.6-3.8,41.6-.3,7.3-.7,14.6-1.2,21.9-.4-9.3-.5-18.5-.2-27.6.3-8.6-1.3-19.9-12.6-16.8-9.4,2.6-12.7,17.9-13.8,25.9-1.9,13.7-3.1,27.6-4.4,41.4-3,32.5-5.5,65-7.1,97.5-2.1,43.6,17.2,83.7,14.5,127.5-.2,3.3,4.9,3.3,5.1,0,1.1-17.9-.4-35.5-3.8-53.1-3.5-18.1-9.6-35.4-10.8-54-1.8-26.5,1.8-54,4-80.5,2-25.5,4.1-51.1,7.3-76.5.5-4.1,1.3-8,2.6-12,.7-1.6,1.4-3.1,2.1-4.7,1.8-4.9,5.8-5,11.7-.2.3,3.3,0,6.8-.2,10.1-.5,20.9,1,42.5,3.8,63.2,0,.6.4,1.1.7,1.5-4.6.7-9.3,1.4-13.9,2.3-3.3.6-1.9,5.6,1.4,4.9,29.4-5.6,59.2-6.6,89-3.3,3.3.4,3.3-4.8,0-5.1-3.9-.4-7.8-.8-11.7-1,1.1-36.9.2-73.8,0-110.7,15.8-19.5,18,15.1,18.7,23.1.9,10.2,1.7,20.4,2,30.6.7,24.7,2.4,49.3,2.7,73.9-5.8-.2-11.7,1.1-15.7,3.3-8.5,4.7-17.2,8.4-26.1,12.1-5.4,2.2-13.2,4.9-16.7,10.1-6.4,9.5,4.7,16.6,13.3,18.5-15.2,10.7-24.4,25.5-24.8,45.2,0,3.3,5.1,3.3,5.1,0,.4-20.4,11.1-34.6,28.1-44.5.4,0,.9,0,1.3,0-.4,2.2-.9,4.4-1.7,6.5-1.2,3.1,3.8,4.4,4.9,1.4,1-2.7,1.6-5.4,2.1-8.2.6,0,1.2-.2,1.8-.3-.6,2.1-1.3,4.1-2.1,6.1-1.2,3.1,3.7,4.4,4.9,1.4,1-2.6,2-5.1,2.6-7.8,0-.2,0-.4,0-.6.7-.1,1.3-.3,2-.4-.2,2.2-.6,4.3-1.2,6.4-1,3.2,4,4.5,4.9,1.4.9-3,1.4-6.1,1.5-9.2.8-.2,1.6-.4,2.4-.7,1.1,2,2.4,3.8,4.3,5.2,2.1,1.6,4.6,2.6,6.9,3.8,3,1.5,5.6-3,2.6-4.4-2-1-4.2-1.9-6.1-3.2-1.1-.7-2-1.8-2.7-3,4.1-1.3,8.1-2.7,11.7-4,3.1-1.1,1.8-6-1.4-4.9-12.5,4.4-25.6,7.6-38.8,9-3.1.4-6.2.2-9.3-.5-.4-1.5-.7-2.9-1.1-4.4,11-1.8,25.4-9.1,17.5-18.3,1.3-.5,2.6-1,3.8-1.6,13.3-6,31.9-16.8,41.8.1,5.2,8.9,4.8,21,5.1,30.9,1,30.4-14.5,54.9-29.5,80.1-12.3,20.6-16.9,42.7-13.2,66.5.5,3.3,5.5,1.9,4.9-1.4-3.2-20.5.1-40.9,10.5-58.9,9.6-16.7,20.2-32.7,27-50.9,7.4-20,11.2-57.9-5-75.2ZM377.9,149.1c.1-28.3,3-56.5,3.4-84.8.1-7.5,2.1-15,4.3-22.1,3.8-12.4,11.2-20.7,20.4-6.9-1.8,37.4-1.6,75-1.6,112.4-8.9.3-17.8,1.1-26.7,2.3.1-.3.2-.6.2-1ZM409.6,147.7c0-39.7-.2-79.5,1.9-119.1,0,0,0,0,0-.1,1-7.2,3.8-15.1,12.3-13,6,1.5,8.5,7.9,9.4,13.9,0,39.6,1.2,79.2,0,118.7-7.8-.4-15.7-.6-23.5-.4ZM423.2,192.1c-2.8,1.4-6.4,2.5-9.9,2.9-.4-1.6-.8-3.2-1.2-4.9,2.1-1.2,4.2-2.3,6.3-3.2,2.8-1.3,5.6-2.4,8.4-3.5,4.3,3.9.5,6.6-3.7,8.7Z"/>
      <path class="st0" d="M400.5,56.4c-3.9,0-7.9,0-11.8.4-3.3.3-3.3,5.4,0,5.1,3.9-.4,7.9-.4,11.8-.4s3.3-5.1,0-5.1Z"/>
      <path class="st0" d="M424.1,52.9c-2.7,0-5.3,0-8-.4-3.3-.4-3.2,4.7,0,5.1,2.7.3,5.3.4,8,.4,3.3,0,3.3-5.1,0-5.1Z"/>
      <path class="st0" d="M409.9,307.7c-6.4-1.5-12.8-1.6-19.3-.9-3.3.4-3.3,5.5,0,5.1,6.1-.7,12-.7,18,.7,3.2.7,4.6-4.2,1.4-4.9Z"/>
      <path class="st0" d="M366,304.7c-3.4,4-6.3,8.3-8.7,13-1.5,2.9,2.9,5.5,4.4,2.6,2.2-4.3,4.8-8.3,7.9-11.9,2.1-2.5-1.5-6.2-3.6-3.6Z"/>
      <path class="st0" d="M360.3,309.9c2.1-1.7,3.8-3.8,5.1-6.2,1.5-2.9-2.9-5.5-4.4-2.6-1.1,2.1-2.4,3.7-4.3,5.2-2.6,2.1,1.1,5.7,3.6,3.6Z"/>
    </g>
  </g>
  <g>
    <path class="st1" d="M637.2,489.2c2.8-7.8,1.4-22.6,1.4-32.6,0-21.2-9.9-34-15.6-53.8-3.5-15.6-3.5-29.7-3.5-46v-26.2c0-12,1.4-12,9.9-18.4,7.8-5,6.4-.7,7.8-10.6.7-6.4,0-13.4,2.1-19.1,4.2-14.9,14.2-17.7,27.6-15.6-7.1-14.9-6.8-32.5-14.1-47.4-8-16.4-13.3-36.8-11.9-53.1.7-7.1,6.3-10.6,14.8-10.6s14.2,12,17,20.5c5.7,16.3,9.2,36.8,18.4,51.7,13.4-5,16.3,12.7,20.5,21.2.7-12,0-117.3,26.9-100.3,11.3,7.8,9.2,46.5,8.4,57.9-1.4,18.4-.7,35.4-.7,53.8,0,35.4,2.1,69.3,4.2,104,1.4,18.4,0,31.8-7.8,48.8-7.1,17.7-17.7,28.3-15.6,47.4,1.4,7.8,1.4,15.6,1.4,24.1-12,2.8-23.4,4.2-36.1,4.2q7.1,3.5,14,8.5l-69.2-8.5Z"/>
    <g>
      <path class="st0" d="M706.3,443.7c-17.8-3.4-37.7,7-54.4-2-2.7-1.4-5.1,2.6-2.4,4.1,17.6,9.5,36.9-1.1,55.5,2.5,3,.6,4.3-4,1.3-4.6Z"/>
      <path class="st0" d="M680.2,450.1c-2.2-2.1-5.5,1.2-3.3,3.3,2.6,2.6,5.4,5,8.5,7.1,2.5,1.7,4.9-2.4,2.4-4.1-2.7-1.9-5.2-4-7.5-6.3Z"/>
      <path class="st0" d="M688,450.7c-2.5-1.7-4.9,2.4-2.4,4.1,1.7,1.1,3.4,2.2,4.9,3.5,2.4,1.9,5.8-1.5,3.3-3.3-1.9-1.5-3.9-2.9-5.9-4.2Z"/>
      <path class="st0" d="M710.3,276.7c-3.2.2-6.2,1-9.1,2.4-2.8,1.3-.4,5.3,2.4,4.1,2.2-1,4.4-1.6,6.7-1.7,3-.2,3.1-4.9,0-4.7Z"/>
      <path class="st0" d="M663,386.1c2.6,1.5,5-2.6,2.4-4.1-3.6-2.1-7.6-3.2-11.4-4.7-2.8-1.1-4.1,3.5-1.3,4.6,3.5,1.4,7,2.4,10.3,4.2Z"/>
      <path class="st0" d="M750.5,218.6c1.4-18.9,5.2-45.5-3.8-63.2-3.8-7.4-11.7-13.6-19.7-7.3-12.6,9.8-11,30.5-12.5,44.6-1.8,17-3.3,33.9-4.6,50.9-.9-2.6-1.8-5.2-2.8-7.8-2-5-10.6-14.8-16.9-10.4-.2.2-.4.4-.6.5-.3,0-.5.1-.8.2-5.9-20.4-11.3-41.7-20.8-60.7-3.4-6.7-12.7-16.4-21.2-12.3-13.4,6.5-9.3,28.8-7.1,40.1,4.7,24.7,17.6,47,24.3,71.1-4.9-1.4-10.7-.5-15.3.7-17.4,4.6-13.2,28.7-12.5,42.1-22.9,4.9-21,45.5-18.5,64.5,2.3,17.6,3.6,36.7,11.2,53,4.2,9.1,9.2,16.2,9.5,26.7.4,12.3-1.4,25.2-1.6,37.6,0,3.1,4.7,3,4.7,0,.3-13.6,1.9-27.5,1.5-41.1-.3-9.4-5.9-17.5-10-25.6-6.3-12.2-7-26.6-8.8-39.9-2.1-15.5-4.1-30.3-2.8-45.9.7-8.6,2.8-16,10-21.4,7.1-5.3,17.3-4,23.7,1.6,1.9,3.2,4,6.2,6.5,9,.1.2.3.2.5.4,3.1,6,5.2,12.8,7.8,18.6.4,1,1,2.1,1.5,3.3-.6,0-1.3-.1-2,0-3.3.6-5.7,3.8-7,6.7-1.1,2.4-1.6,5.2-1.3,7.8-5.2-3.2-10-8.4-13.9-14,.2-.8-.1-1.7-1.2-2.2-.1,0-.3-.1-.4-.2-2.3-3.6-4.1-7.1-5.2-10.2-1-2.8-5.6-1.6-4.6,1.3.7,2,1.7,4,2.7,5.9-2.3-1-4.5-2.2-6.4-3.8-2.4-1.9-5.7,1.4-3.3,3.3,2.5,2,5.3,3.4,8.1,4.7-4.1,1.9-8.3,3.8-12.8,4-3,.1-3.1,4.9,0,4.7,6.8-.3,12.5-3.9,18.7-6.1,4.8,6.7,11,12.6,17.6,17.1,1.3.9,3.4,1.9,5.8,2.6,1.5.7,3.2,1,4.9,1,2.7.3,5.3,0,7.1-1.5-4.5,10-6.9,20.5-6.8,31.8,0,3.1,4.8,3.1,4.7,0-.1-14.1,3.8-25.9,10.6-38.1,3.5-6.4,15.2-18.7,14.5-26-1.4-15.8-6.5-31.7-10.1-47.2-2-8.9-4-17.9-5.8-26.8-1.6-7.7-2.2-15.8.2-23.4.2,6.5,2.2,13,4.9,18.9,2.7,5.8,12.4,2.9,18.1.5,2.6,9.8,5.4,19.5,8.2,29.2,4.3,15.5,11.3,30.1,12.4,46.4.2,3,4.9,3,4.7,0,0-1.3-.3-2.6-.4-4,1.5.8,3,1.6,4.5,2.3,2.7,1.3,5.2-2.8,2.4-4.1-2.6-1.2-5.1-2.6-7.8-3.8-2.5-13-7.6-25.3-11.3-38.1-2.9-9.9-5.1-20.4-7.7-30.6,1.2-15.9,2.5-31.7,4-47.5.9-9.7,2-19.4,3.1-29.2,1.1-9.5.9-19.9,8.1-27.1,12.3-12.5,16.8,17.1,17.4,23,1.1,9.9.8,20.1.3,30-1,22-3.1,43.9-3.5,65.9-.4,21.2.4,42.4,1.5,63.6,1.1,21,4.2,43.5.2,64.3-3.1,15.9-15,26.2-19.4,41.1-.9,3-.3,6.9-.3,9.9.1,9.9.3,19.7.5,29.6,0,3,4.8,3.1,4.7,0-.4-17.6-4-35.7,6.2-50.9,11.3-16.9,15-34.2,14.6-54.5-.5-25.3-2.6-50.6-3.3-75.9-.7-26.8.7-53.5,2.6-80.2ZM640.9,306.9c-.7-12.3-4.8-31.2,9.1-37,4.4-1.8,11.4-1.4,15.6.3.3.1.5.3.8.5,0,0,0,0,.1,0,4.8,2.9,7,11.1,9.3,15.9,5.9,12.6,12.3,25.1,16.9,38.3.4,1,.8,2.1,1.2,3.3-3-3.6-7.3-5.7-12.8-4-8.6,2.7-7.6,11.3-4.2,18.2-1.9-1.2-3.5-2.4-4.3-3.2-3.1-8.2-7.3-20.2-14.7-26.8-3.9-6.7-7.2-13.8-11.1-20.4-1.6-2.6-5.7-.2-4.1,2.4,2.7,4.4,5.1,9.1,7.5,13.7-3.4-.9-6.5-1.4-9.3-1.4ZM684.7,346c-3.9-4.4-10.3-16.9,0-17.5,5.3-.3,8,5.8,9.3,10.7-1.1,1.7-2.2,3.4-3.3,5.2-1.2,2-3.5,2.3-6,1.7ZM667.7,365.5c-.6-.4-1.2-.9-1.6-1.6-1-1.9-.4-4.5.3-6.5.6-1.7,2.1-3.9,3.5-4.4.7-.3.9-.2,1.7.2,1,.7,1.6,2.2,2.1,3.3.3.7.8,1.1,1.4,1.2,1.4,5.3.5,9.5-7.4,7.8ZM682.6,360.8c-.8,1.3-1.5,2.7-2.2,4,.9-5.5-1.4-11.3-4-16.8,1.7.8,3.6,1.5,5.5,1.8.7.6,1.6.6,2.3.3,1.7.1,3.4,0,5-.3-2.2,3.6-4.5,7.2-6.6,10.9ZM680.6,240.2c-.2-1.6-1.7-3-3.4-1.9-2,1.3-5.3,3.9-7.1,4.2-3,.5-1.7,5.1,1.3,4.6,1.2-.2,2.4-1.1,3.4-1.7,1.6-1,3.2-2,4.8-3,.3-.2.5-.4.7-.7-1,4.7-1.1,9.6-.8,14.4,1,14.6,4.8,29.6,8.7,44.3-3-5.7-6-11.2-8.3-16.1-3-6.3-4.9-12.6-10-16.7-7.9-32.6-33.7-68.1-26.2-102.6,1.9-8.8,9.1-9.1,15-4.2,4.7,3.9,7.1,10.5,9.3,15.9,7,17.4,12,35.7,17.3,53.7-2.2,2.9-3.6,6.2-4.5,9.7ZM699.1,256.7c-3.4.6-4.4.4-5.5-3-2.4-7.6-5-15.5-1.9-23.2,6.4-3.2,12.4,10.3,13.8,16.2.6,2.6,1.3,5.2,1.9,7.9-2.7,1-5.4,1.6-8.3,2.1Z"/>
      <path class="st0" d="M661.9,187.9c-1.6.7-3,1.7-4.4,2.7-1.2.9-2.5,2.2-4,2.8-2.8,1.1-1.6,5.7,1.3,4.6,3.5-1.4,6-4.5,9.5-6,2.8-1.2.4-5.3-2.4-4.1Z"/>
      <path class="st0" d="M739.6,191.7c-4.6-2.2-9.6-2.8-14.6-2.9-3.1,0-3.1,4.7,0,4.7,4.1,0,8.4.5,12.2,2.2,2.7,1.3,5.2-2.8,2.4-4.1Z"/>
      <path class="st0" d="M734.2,298.3c2.2,2.2,5.5-1.2,3.3-3.3-2.3-2.3-4.7-4.7-7-7-2.2-2.2-5.5,1.2-3.3,3.3,2.3,2.3,4.7,4.7,7,7Z"/>
      <path class="st0" d="M741.5,290.1c-2.1-1.4-4.1-3-5.9-4.7-2.2-2.1-5.5,1.2-3.3,3.3,2.1,2,4.4,3.8,6.9,5.5,2.5,1.7,4.9-2.4,2.4-4.1Z"/>
    </g>
  </g>
  <g>
    <path class="st1" d="M1093.5,320.5c-.5-4.2,0-32.3-2.9-47.9.1-7.2-.9-14.9-.9-20.7,0-12.2,2.8-24.5,2.8-36.7s2.5-31.5,1.9-44.3c-1.1-14.5,7.5-50.9-12.5-57.6-20-6.7-18.4,58.4-18.9,69.6-1,21.9-4,44.2-5.3,65.8,0,0,0,0,0,0-.8-10.7-5-23-5.8-32.9-1.1-16.7-1.8-28.7-2.9-44.9-1.1-12.2-2.7-72.6-23.8-68.7-10,1.7-6.7,27.3-7.2,35.1-.6,14.5,3.3,23.9,3.9,37.8.5,22.2,6.8,55,9.5,72.9-.4,0-.7,0-1.1,0-1.5,0-3.1,0-4.8,0-5.1-16.2-14.4-36.6-19.4-50.4-4.5-10.6-6.5-17.7-11.7-28.5-5.1-10.6-8.7-26.8-17.6-32.4-13.4-8.3-14.7,11.4-14.2,19.2,1.7,13.4,10.2,38.3,14.7,51.1,5.9,18.6,15.7,32,22.9,49-2.4,3.3-3.6,6.7-8.8,8.3-6.1,1.8-10.3,3.6-14,9.2-6.6,10.2-6.7,24.2-6.1,35.8,1.1,19.6,4.9,39.3,10.9,57.9,2.2,8.3,8.3,13.5,9.5,21.9.5,3.7-1.4,21.4-.8,29.6l-1.3,23c24.5,7.8,50.6,12.8,73.5,12.8-5.6-2.8-11.7-5-17.3-8.3,12.4,3.3,28.8-5.5,28.8-5.5.2-14.9-1-31-1-43.2s13-23.8,16.5-38.2c1.7-7.1,2.2-14.5,2.2-21.9,0-5.6,1.9-11.3,1.2-16.9Z"/>
    <g>
      <path class="st0" d="M1054.7,389.1c-16.7-3.2-35.4,6.5-51.1-1.9-2.5-1.4-4.8,2.5-2.2,3.8,16.6,8.9,34.7-1,52.2,2.3,2.8.5,4-3.8,1.2-4.3Z"/>
      <path class="st0" d="M1030.2,395c-2-2-5.2,1.1-3.1,3.1,2.5,2.4,5.1,4.7,8,6.7,2.4,1.6,4.6-2.2,2.2-3.8-2.6-1.7-4.9-3.8-7.1-6Z"/>
      <path class="st0" d="M1037.5,395.6c-2.4-1.6-4.6,2.3-2.2,3.8,1.6,1,3.2,2.1,4.7,3.3,2.2,1.7,5.4-1.4,3.1-3.1-1.8-1.4-3.7-2.7-5.6-3.9Z"/>
      <path class="st0" d="M1040.4,271.9c-1.9,2.1-3.3,4.4-4.3,7.1-1.1,2.7,3.2,3.8,4.3,1.2.8-1.9,1.8-3.6,3.2-5.1,1.9-2.1-1.2-5.3-3.1-3.1Z"/>
      <path class="st0" d="M1014,334.9c2.5,1.4,4.7-2.4,2.2-3.8-3.4-1.9-7.1-3-10.7-4.4-2.7-1-3.8,3.3-1.2,4.3,3.3,1.3,6.6,2.2,9.7,4Z"/>
      <path class="st0" d="M1086.4,110.2c-8.8-6.6-17.5,5.5-20,12.3-3.4,9.2-2.9,20.7-3.8,30.4-1.1,12-2,24-2.8,36-1,14.6-1.9,29.2-3.3,43.8-3.5-29-4.4-58.4-8.2-87.4-1.6-12.4-2.5-26.6-9.5-37.4-7.9-11.9-20.6-12.6-23.5,2.7-2.4,13.1-.1,27.8,1.2,40.9,1.8,16.9,4.2,33.7,5.2,50.7.3,5.6,1.5,11,2.4,16.6.8,4.8,1.5,9.7,2.1,14.6.2,1.9.4,3.9.5,5.8,0,.5,0,1,0,1.5-7.7-13.9-12.8-29.8-18.8-44.5-6.4-15.8-12.8-31.6-19.8-47.1-2.6-5.7-5.7-15.1-12.2-17.7-6.9-2.7-12.6,2.4-14.9,8.7-3.4,9.2,1.1,23.8,3.2,33,3.1,13.2,7.7,26.1,12.5,38.8,6,16.1,12.6,32.1,19.7,47.7,0,.4.2.8.3,1.2-34-1.5-27.5,46.2-24.1,68.3,1.5,9.7,2.4,19.5,4.5,29.1,1.8,8.3,6,15.4,9.9,22.9,5.1,9.7,3.2,19.4,2.7,29.8-.6,11.3-.2,22.7-1.2,34-.2,2.9,4.2,2.8,4.5,0,1.3-16.1,1.3-32.3,2.2-48.5.8-13.2-9-24-12.9-36-5.4-16.2-6.9-36.6-7.9-53.5-1.1-18,.4-43.5,24-41.6,4.2,9.2,13.3,18.1,19.5,23.5-.1.4-.2.8,0,1.3,1.2,3,2.5,5.9,3.8,8.9-.6,0-1.2,0-1.8,0-3.1.6-5.4,3.5-6.6,6.3-.9,2.1-1.4,4.5-1.3,6.9-2.6-1.8-4.9-4-6.9-6-5.1-5.1-10.1-11.5-12.5-18.5-.9-2.7-5.2-1.5-4.3,1.2.6,1.8,1.4,3.6,2.3,5.3-2.1-.9-4-1.9-5.8-3.3-2.2-1.8-5.4,1.3-3.1,3.1,2.4,2,5.1,3.2,7.8,4.4-4,1.8-7.9,3.7-12.3,3.9-2.9.1-2.9,4.6,0,4.5,6.4-.3,11.8-3.7,17.7-5.7,2.5,3.4,5.4,6.6,8.3,9.5,4.2,4.1,9.8,8.5,15.9,9.7.6.1,1.3.2,1.9.3.3,0,.5,0,.8,0,.3,0,.7,0,1,0,.2,0,.4,0,.5-.1.4,0,.7,0,1.1,0,.9-.2,1.7-.4,2.5-.7-3.9,9.1-5.3,19.2-5.1,29.3,0,2.9,4.5,2.9,4.5,0-.3-14.3,2.6-28.4,11.9-39.2-.2,3.1-.3,6.1-.3,9.2,0,2.9,4.5,2.9,4.5,0,0-2.7,0-5.3.2-8,0,.1.1.2.2.4,3.9,7.7,8.8,14.9,17.2,17.6,2.7.9,3.9-3.4,1.2-4.3-14-4.5-13.7-22.4-25.6-29.3-12.9-7.4-26.6-17.9-32.5-32.2,3.6,3.3,8.1,5.9,12.6,8.3,6.3,3.4,11-4.4,13.5-10,5.3,3.6,10.7,7,16.1,10.4,13.7,8.7,27.3,18.2,34.5,33.2,1.2,2.6,5.1.3,3.8-2.2-3.3-6.9-7.9-12.7-13.2-17.8,2.2.2,4.4.5,6.5,1.2,2.8.8,3.9-3.5,1.2-4.3-3.7-1.1-7.6-1.2-11.4-1.8-.6,0-1.1,0-1.5.3-7.1-5.9-15.1-10.8-22.9-15.7-5.4-3.4-10.6-7.3-15.9-10.8,9.4-1.5,19.1-2.4,28.7-2.5.4.5,1.1.7,1.8.6.7.1,1.3,0,1.7-.6,4.7,0,9.3.3,13.8.7,2.9.3,2.8-4.2,0-4.5-4.3-.4-8.6-.6-13-.7,4.3-32.6,5.1-65.5,8.2-98.2,1-10.4.3-23.6,7-32.2,11.6-14.9,17.1,13.8,17.8,20.3,2.4,21.3-.6,43.3-2,64.5-3,45.1,3.8,89.9,2.1,134.9-.4,10.9-3.7,22.6-9.6,31.8-3.8,5.9-8.1,11.2-10.1,18-1,3.5-.3,8.1-.2,11.7.1,11,.4,22.1.6,33.1,0,2.9,4.5,2.9,4.5,0-.4-16.3-5.1-38.5,4-53,4.6-7.5,8.8-13.6,11.6-22,4-11.6,4.1-23.7,3.6-35.9-1.1-26.7-2.9-53.3-3.1-80.1-.2-26.4,2.4-52.5,3.6-78.8.6-14.8,2.8-40.8-10.8-51ZM1022.8,316.3c-1.3,0-2.6-.1-3.8-.4-.9-.4-1.6-.9-2.2-1.8-1-1.8-.4-4.3.3-6.1.6-1.6,1.9-3.7,3.3-4.2.7-.3.9-.2,1.6.2,1,.6,1.6,2.1,2,3.1.3.7.8,1,1.4,1.1,1.2,3.8,1.7,7.9-2.6,8.1ZM1038,303.7c-2.9,2.7-5.4,5.7-7.4,8.9-.1-5.5-3.4-12.8-5.9-18.2,1.9,1.3,3.9,2.5,6,3.6,3.3,1.7,5.5,3.5,7.3,5.6ZM1021.3,265.7c-2.7,3.7-4.5,1.6-7.7-.2-4.4-2.5-8.5-5.3-11.1-9.5,1.7-1.9,3.3-3.8,5-5.7,4,.6,7.7,2,11,4.1,2.4,1.3,4.6,3,6.9,4.6-1.1,2.4-2.5,4.5-4,6.6ZM1014.5,247.4c-3.9-1.8-13.7-3.4-16.4,1.3-.4.6-.6,1.2-.8,1.8-11.7-26.1-22.6-53.2-29.2-80.9-.8-3.6-1.5-7.2-2-10.8-.4-3.2-.9-6.4-1.1-9.6,0-1,0-1.9,0-2.9-.8-6.8,3.3-9.6,12.2-8.3,8.3,8.3,12.7,25.6,16.9,35.8,6.1,14.7,12,29.5,18.1,44.2,3.6,8.6,6.6,24.1,14.4,30.1.7.6,1.8,1,2.7.3,4.7-3.6,1.6-14.6,1-19.3-1.3-10.3-3.6-20.3-4.2-30.7-1.3-22.1-5.3-43.9-6.6-66-.3-5.3-3-31.5,7.1-29.4,5.9,1.2,10.4,9.2,12.2,14.4,7.6,22.3,7.8,48.5,10,71.8,1.8,19.2,2.6,38.8,5.5,58-11.3.2-22.6,1.4-33.5,3.4-2-1.1-4-2.2-6.1-3.2Z"/>
      <path class="st0" d="M1033.7,136.1c-3.3.8-6,3.1-9.3,3.8-2.8.6-1.6,4.9,1.2,4.3,3.3-.7,6-3,9.3-3.8,2.8-.7,1.6-4.9-1.2-4.3Z"/>
      <path class="st0" d="M1086,152.1c-4.3-2-9-2.7-13.7-2.7-2.9,0-2.9,4.4,0,4.5,3.9,0,7.9.4,11.5,2.1,2.6,1.2,4.8-2.6,2.2-3.8Z"/>
      <path class="st0" d="M1039.2,185.4c-1.3.6-2.6,1.1-4,1.6-.8.3-1.5.6-2.3.8-.3,0-1.6.3-1,.3-2.9,0-2.9,4.4,0,4.5,2.7,0,6-1.8,8.4-2.9,2.6-1.1,1.5-5.4-1.2-4.3Z"/>
      <path class="st0" d="M1080.9,252.3c2,2,5.2-1.1,3.1-3.1-2.2-2.2-4.4-4.4-6.6-6.6-2-2-5.2,1.1-3.1,3.1,2.2,2.2,4.4,4.4,6.6,6.6Z"/>
      <path class="st0" d="M1079.1,243.3c2,1.9,4.2,3.6,6.5,5.2,2.4,1.6,4.6-2.2,2.2-3.8-2-1.3-3.8-2.8-5.6-4.5-2.1-2-5.2,1.1-3.1,3.1Z"/>
      <path class="st0" d="M980.2,167.1c-2,1.3-4,2.3-6,3.6-2.4,1.6-.2,5.4,2.2,3.8,2-1.3,4-2.3,6-3.6,2.4-1.6.2-5.4-2.2-3.8Z"/>
    </g>
  </g>
  <g>
    <path class="st1" d="M1280.9,553.3c25.6,8.1,52.8,13.4,76.8,13.4-5.8-2.9-12.2-5.2-18-8.7,12.9,3.5,30.1-5.8,30.1-5.8.2-15.6-1.1-32.4-1.1-45.2s9.8-25.9,15.1-40.5c4.7-16.3,4.5-27.6,3.9-43.9-.6-33.2-8.6-69.5-11.7-102-2.6-26.2.1-52-8-79.9-1.7-4.7-6.2-18.4-12-19-6.4-1.2-14,8.7-14.5,14-8-16-14-22.1-21.5-11.1-7,10.5-6.4,23.3-5.2,34.9,1.2,20.9,2.9,41.3,1.2,62.2-8.1-4.1-17.4-8.7-16.3,5.2-8.6-13-23.2,6.6-18,23.3,1,3.3.6,7.6,0,10.5-1.7,5.2-1.3,4.3-7,5.6-5,1.2-11.1,13.9-12.2,23.2-2.9,26.8,2.8,60.7,10.9,85.8,2.3,8.7,8.7,14.1,9.9,22.9.5,3.9-1.5,22.4-.8,31l-1.4,24Z"/>
    <g>
      <path class="st0" d="M1347.8,496.3c-17.5-3.4-37,6.8-53.4-2-2.6-1.4-5,2.6-2.3,4,17.3,9.3,36.3-1.1,54.5,2.4,2.9.6,4.2-3.9,1.2-4.5Z"/>
      <path class="st0" d="M1322.2,502.6c-2.1-2.1-5.4,1.2-3.3,3.3,2.6,2.6,5.3,4.9,8.3,7,2.5,1.7,4.8-2.3,2.3-4-2.7-1.8-5.1-3.9-7.4-6.2Z"/>
      <path class="st0" d="M1329.9,503.1c-2.5-1.7-4.8,2.4-2.3,4,1.6,1.1,3.3,2.2,4.9,3.4,2.3,1.8,5.7-1.4,3.3-3.3-1.9-1.5-3.8-2.8-5.8-4.1Z"/>
      <path class="st0" d="M1335.7,356c-2.6,1.4-4.8,3.2-6.7,5.4-2,2.2,1.3,5.5,3.3,3.3,1.7-1.9,3.5-3.5,5.8-4.7,2.7-1.4.3-5.4-2.3-4Z"/>
      <path class="st0" d="M1305.2,439.7c2.6,1.5,5-2.5,2.3-4-3.5-2-7.5-3.1-11.2-4.6-2.8-1.1-4,3.4-1.2,4.5,3.4,1.3,6.9,2.3,10.1,4.2Z"/>
      <path class="st0" d="M1389.9,422.5c-1.4-22.5-4.4-44.9-7.3-67.2-2.7-20.8-5-41.6-5.6-62.5-.6-18.7-2.3-35.9-7.4-53.9-1.9-6.5-6.4-18.5-14.9-18.5-6.7,0-11.3,4.7-13.8,10.4-2.2-6.3-5.6-12.3-11.7-14.9-9.1-3.9-14.5,10.5-16,16.4-3.3,13.3-2.3,27.5-1.8,41.1.6,14.9.5,29.7,1.3,44.6-5.9-4.4-11.8-5.9-15.5.3-.1.2-.2.5-.4.8-.4.3-.6.7-.7,1.2-21.4,1.8-17.7,27-17.1,42.7-7.1,2.2-13.2,7.8-16.4,14.5-7.1,14.8-3.8,37.3-1.1,52.8,3.5,19.7,4.6,37.7,14.4,55.6,5.5,10.1,5.1,18.9,4.3,30-.9,12.2-.4,24.4-1.2,36.6-.2,3,4.5,3,4.7,0,1-14.7.3-29.5,1.9-44.2,1.1-10.1-2.2-18.5-7-27.2-7.6-13.9-9.4-28.4-11.4-43.9-1.8-14.1-3.8-27.6-3.1-41.9.4-7.8,1.4-15.5,6.5-21.7,6.7-8.2,19.4-8.2,26.9-1.5,1.9,3.1,4,6.1,6.3,8.8.1.2.3.2.5.4,3.1,5.9,5.1,12.6,7.6,18.3.4.9.9,2,1.5,3.2-.6,0-1.2-.1-1.9,0-3.3.6-5.6,3.7-6.9,6.6-1.1,2.4-1.6,5.1-1.3,7.7-9.1-5.5-17.2-17.7-20.3-26.1-1-2.8-5.5-1.6-4.5,1.2.7,1.9,1.6,3.8,2.5,5.6-2.2-.9-4.3-2-6.2-3.5-2.3-1.9-5.6,1.4-3.3,3.3,2.5,2,5.3,3.3,8.2,4.6-4.1,1.9-8.3,3.8-12.8,4-3,.1-3,4.8,0,4.7,6.6-.3,12.3-3.8,18.4-6,4.7,6.6,10.8,12.4,17.3,16.8,2,1.4,4.8,2.5,7.6,3.2,1.4.3,2.9.5,4.3.5.1,0,.2,0,.3,0,1.3,0,2.6-.4,3.7-.9-3.7,9.7-5.3,20.4-5.1,30.7,0,3,4.7,3,4.7,0-.3-17.5,4.3-36.3,17.5-48.6,0,0,0,0,0-.1,1.8,2.5,3.5,5.1,5,7.8,1.5,2.6,5.5.3,4-2.3-14.7-25.8-38.7-43.4-45.3-73.8-.3-1.2-.6-3.2-.8-5.4,2.6,5.2,6.7,9.7,10.7,14.1,5.4,5.9,13.2-.5,17.9-5.4,4,4.6,8.2,9.1,12,14,11.9,15.5,27.7,28.4,36.9,45.7,1.4,2.7,5.4.3,4-2.3-5.4-10.1-12.8-18.3-20.6-26.6-5.4-5.7-10.3-11.9-15.2-18,.7-.1,1.5-.2,2.2-.3.6.2,1.2,0,1.8-.2,5-.4,10-.4,15-.4s3-4.7,0-4.7c-4.7,0-9.5,0-14.2.4-3-36.6-3.5-73.3-6-110,.3-3,1.2-5.7,2.9-8.3,7.4-13.3,14.3-1.1,16.5,3.3,3.1,6,4.6,13.5,6.2,20,4,16.9,3.1,34.9,4,52.1,1.3,26.2,5.5,52.1,8.7,78.1-.1,0-.2-.2-.3-.2-3-1.4-5.9-3.2-9-4.3-2.8-1-4,3.5-1.2,4.5,2.8,1,5.3,2.6,7.9,3.8,1.2.6,2.3,0,3-.8.9,7.5,1.8,15,2.4,22.5,1.2,13.2,2.3,26.6.5,39.8-1.1,8.4-2.8,16.5-6.6,24.1-3.1,6.3-7.3,12-10.3,18.3-2.7,5.5-1.7,11.2-1.6,17.2.2,14.5.5,28.9,1,43.4.1,3,4.8,3,4.7,0-.6-16.2-.9-32.3-1.1-48.5-.2-14.5,11.3-25,15.6-38.5,4.4-13.6,4.3-28.7,3.4-42.8ZM1309.8,419.4c-.6-.4-1.2-.8-1.6-1.6-1-1.9-.4-4.5.3-6.4.6-1.6,2-3.8,3.4-4.3.7-.3.9-.2,1.6.2,1,.7,1.6,2.2,2.1,3.3.3.7.8,1.1,1.4,1.2,1.4,5.2.5,9.3-7.2,7.6ZM1322.8,415c-.3-3.9-2-8.3-3.9-12.3,1.6.7,3.3,1.2,5,1.5.7.5,1.4.6,2,.3,1.8.1,3.6,0,5.4-.5-3.4,3.3-6.2,7-8.5,11ZM1321.2,387.6c3.2,3.9,6.4,7.8,9.5,11.7-1.4.5-3,.6-4.7.5-2.8-3.1-5.7-8-4.9-12.2ZM1311.3,374.5c2.1,3,4.3,6,6.6,8.9-2.5,4.4-1.4,9.6,1,14.1-1.7-1-3.2-2.2-4.2-3.7-3.6-8.3-7-17.9-13.3-24.5-4.4-7.1-7.8-14.9-12.1-22-1.6-2.6-5.6-.2-4,2.3,2.7,4.4,5.1,9.1,7.6,13.8-.7-.3-1.3-.7-2.1-.9-2.4-.7-4.8-.9-7.2-.7-.7-12.4-4.5-33.9,10.8-36.9-3.9,16.5,8.5,37.2,16.9,49.5ZM1318.1,342.2c-3.8,2.6-4.6,1.8-7.5-1.5-4.9-5.6-9.5-11-9.9-18.6,1.3-1.6,3.3-2.4,6.5-1.6,6.5,1.6,10.5,7.7,14.1,12.8.9,1.3,2,2.6,3,3.8-1.9,1.9-3.9,3.5-6.1,5ZM1344.7,348.9c-1.2.2-2.4.3-3.6.5-2.4-3-4.9-5.9-7.5-8.7-1.9-2.1-8.6-11.7-16.1-18.8-1.4-19.7-1.3-39.4-2-59.2-.4-10.6.1-21.6,2.7-31.9,1.8-7.1,9.1-15,15.4-4.8,2.5,4,3.9,8.9,5.1,13.4,0,0,0,0,0,0,2.5,36.4,3,73,6,109.4Z"/>
      <path class="st0" d="M1357.9,254.7c-2,.6-4.2.5-6.3.5-3,0-3,4.7,0,4.7,2.5,0,5.1,0,7.5-.7,2.9-.8,1.7-5.3-1.2-4.5Z"/>
      <path class="st0" d="M1352.2,291.8c3.1.6,6.2.1,9.4,0,3,0,3-4.7,0-4.7-2.7,0-5.5.6-8.2,0-2.9-.6-4.2,3.9-1.2,4.5Z"/>
      <path class="st0" d="M1334,252.8c-3.6-.7-7.1-.7-10.6,0-2.9.5-1.7,5,1.2,4.5,2.7-.5,5.4-.5,8.2,0,2.9.5,4.2-3.9,1.2-4.5Z"/>
    </g>
  </g>
</svg>