<?xml version="1.0" encoding="UTF-8"?>
<svg id="Layer_1" xmlns="http://www.w3.org/2000/svg" version="1.1" xmlns:xlink="http://www.w3.org/1999/xlink" viewBox="0 0 1080 585.2">
  <!-- Generator: Adobe Illustrator 29.0.0, SVG Export Plug-In . SVG Version: 2.1.0 Build 186)  -->
  <defs>
    <style>
      .st0, .st1 {
        fill: #4d4d4d;
      }

      .st2 {
        stroke-width: 23px;
      }

      .st2, .st3, .st4 {
        fill: none;
        stroke: #000;
        stroke-linecap: round;
        stroke-linejoin: round;
      }

      .st3 {
        stroke-width: 25px;
      }

      .st5 {
        font-family: Graphik-Thin, Graphik;
        font-size: 63.2px;
        font-weight: 200;
      }

      .st5, .st6, .st7, .st1 {
        isolation: isolate;
      }

      .st8, .st7 {
        fill: #1690ff;
      }

      .st7, .st1 {
        font-family: Nohemi-SemiBold, Nohemi;
        font-size: 183.1px;
        font-weight: 600;
      }

      .st4 {
        stroke-width: 15px;
      }
    </style>
  </defs>
  <g class="st6">
    <text class="st5" transform="translate(-560.1 110.4)"><tspan x="0" y="0">Sign</tspan></text>
  </g>
  <g>
    <g class="st6">
      <text class="st7" transform="translate(84.7 547.7)"><tspan x="0" y="0">Signify</tspan></text>
      <text class="st1" transform="translate(715.9 547.7)"><tspan x="0" y="0">Me</tspan></text>
    </g>
    <g>
      <path class="st8" d="M378.5,283.7c-5.5,0-11.1-1.7-15.9-5.3-61.7-46.7-24-159.3-19.4-172,4.9-13.7,19.9-20.9,33.7-16,13.7,4.9,20.9,19.9,16,33.6h0c-7.2,20.5-15.9,59.8-11.2,87.3L542.1,11.1c9.1-11.4,25.7-13.2,37.1-4.1,11.4,9.1,13.2,25.7,4.1,37.1l-184.2,229.8c-5.2,6.5-12.9,9.9-20.6,9.9h0Z"/>
      <path class="st0" d="M432.1,346c-5.3,0-10.5-1.7-15-5.2-10.5-8.3-12.3-23.5-4-34.1l197.1-250.3c8.3-10.5,23.5-12.3,34.1-4,10.5,8.3,12.3,23.5,4,34.1l-197.1,250.3c-4.8,6.1-11.9,9.2-19.1,9.2h0Z"/>
      <path class="st0" d="M526.3,363.8c-5.3,0-10.5-1.7-15-5.2-10.5-8.3-12.3-23.5-4-34.1l172.5-219.1c8.3-10.5,23.5-12.3,34.1-4,10.5,8.3,12.3,23.5,4,34.1l-172.5,219.1c-4.8,6.1-11.9,9.2-19.1,9.2Z"/>
      <path class="st0" d="M612.6,352.3c-3.5,0-7-1.1-9.9-3.5-6.8-5.5-7.9-15.4-2.4-22.2l123.1-153.5c5.5-6.8,15.4-7.9,22.2-2.4s7.9,15.4,2.4,22.2l-123.1,153.5c-3.1,3.9-7.7,5.9-12.3,5.9h0Z"/>
    </g>
  </g>
  <g>
    <path class="st3" d="M-314.4-67.4s-17.8,50.2,5,67.4l87.3-109"/>
    <line class="st2" x1="-190.6" y1="-88.1" x2="-284.1" y2="30.5"/>
    <line class="st2" x1="-157.6" y1="-64.9" x2="-239.4" y2="38.9"/>
    <line class="st4" x1="-140.1" y1="-35.3" x2="-198.5" y2="37.5"/>
  </g>
  <image class="st6" width="1441" height="361" transform="translate(-140 1149.5)" xlink:href="loggo-1.png"/>
</svg>