<?xml version="1.0" encoding="UTF-8"?>
<svg id="Layer_1" xmlns="http://www.w3.org/2000/svg" version="1.1" xmlns:xlink="http://www.w3.org/1999/xlink" viewBox="0 0 111.7 50">
  <!-- Generator: Adobe Illustrator 29.0.0, SVG Export Plug-In . SVG Version: 2.1.0 Build 186)  -->
  <defs>
    <style>
      .st0, .st1 {
        fill: #4d4d4d;
      }

      .st2 {
        font-family: NeueJune-Medium, 'Neue June';
        font-weight: 500;
      }

      .st2, .st3, .st1 {
        isolation: isolate;
      }

      .st2, .st4 {
        fill: #1690ff;
      }

      .st2, .st1 {
        font-size: 17.1px;
      }

      .st5 {
        fill: none;
      }

      .st1 {
        font-family: NeueJune-Light, 'Neue June';
        font-weight: 300;
      }

      .st6 {
        clip-path: url(#clippath);
      }
    </style>
    <clipPath id="clippath">
      <rect class="st5" x="-39.6" width="191" height="50"/>
    </clipPath>
  </defs>
  <g class="st6">
    <g>
      <g class="st3">
        <g class="st3">
          <text class="st2" transform="translate(26.2 30.4)"><tspan x="0" y="0">Signify</tspan></text>
        </g>
        <g class="st3">
          <text class="st1" transform="translate(85.9 30.4)"><tspan x="0" y="0">Me</tspan></text>
        </g>
      </g>
      <g>
        <path class="st4" d="M2.6,30c-.3,0-.6,0-.8-.3-3.1-2.4-1.3-8.2-1-8.9s1-1.1,1.8-.8c.7.3,1.1,1,.8,1.7h0c-.4,1.1-.8,3.1-.6,4.5l8.3-10.3c.4-.6,1.3-.7,1.9-.2.6.4.7,1.3.2,1.9L3.6,29.5c-.3.3-.7.5-1.1.5h0Z"/>
        <path class="st0" d="M5.4,33.2c-.3,0-.6,0-.8-.3-.6-.4-.6-1.2-.2-1.8l10.1-12.9c.4-.6,1.2-.6,1.8-.2.6.4.6,1.2.2,1.8l-10.1,12.9c-.3.3-.6.5-1,.5h0Z"/>
        <path class="st0" d="M10.2,34.1c-.3,0-.6,0-.8-.3-.6-.4-.6-1.2-.2-1.8l8.9-11.3c.4-.6,1.2-.6,1.8-.2.6.4.6,1.2.2,1.8l-8.9,11.3c-.3.3-.6.5-1,.5h0Z"/>
        <path class="st0" d="M14.7,33.5c-.2,0-.4,0-.5-.2-.4-.3-.4-.8-.1-1.1l6.4-7.9c.3-.4.8-.4,1.1-.1s.4.8.1,1.1l-6.4,7.9c-.2.2-.4.3-.6.3h0Z"/>
      </g>
    </g>
  </g>
</svg>