<svg width="95" height="99" viewBox="0 0 95 99" fill="none" xmlns="http://www.w3.org/2000/svg">
<g clip-path="url(#clip0_473_356)">
<path d="M12.3247 92.7675C12.1572 92.7675 12.022 92.6328 12.022 92.466V6.53401C12.022 6.36724 12.1572 6.23254 12.3247 6.23254C12.4921 6.23254 12.6274 6.36724 12.6274 6.53401V92.466C12.6274 92.6328 12.4921 92.7675 12.3247 92.7675Z" fill="#D9D9D6"/>
<path d="M26.3955 92.7675C26.228 92.7675 26.0928 92.6328 26.0928 92.466V6.53401C26.0928 6.36724 26.228 6.23254 26.3955 6.23254C26.5629 6.23254 26.6982 6.36724 26.6982 6.53401V92.466C26.6982 92.6328 26.5629 92.7675 26.3955 92.7675Z" fill="#D9D9D6"/>
<path d="M40.4658 92.7675C40.2983 92.7675 40.1631 92.6328 40.1631 92.466V6.53401C40.1631 6.36724 40.2983 6.23254 40.4658 6.23254C40.6332 6.23254 40.7685 6.36724 40.7685 6.53401V92.466C40.7685 92.6328 40.6332 92.7675 40.4658 92.7675Z" fill="#D9D9D6"/>
<path d="M54.5342 92.7675C54.3667 92.7675 54.2314 92.6328 54.2314 92.466V6.53401C54.2314 6.36724 54.3667 6.23254 54.5342 6.23254C54.7016 6.23254 54.8369 6.36724 54.8369 6.53401V92.466C54.8369 92.6328 54.7016 92.7675 54.5342 92.7675Z" fill="#D9D9D6"/>
<path d="M68.6045 92.7675C68.437 92.7675 68.3018 92.6328 68.3018 92.466V6.53401C68.3018 6.36724 68.437 6.23254 68.6045 6.23254C68.7719 6.23254 68.9072 6.36724 68.9072 6.53401V92.466C68.9072 92.6328 68.7719 92.7675 68.6045 92.7675Z" fill="#D9D9D6"/>
<path d="M82.6748 92.7675C82.5073 92.7675 82.3721 92.6328 82.3721 92.466V6.53401C82.3721 6.36724 82.5073 6.23254 82.6748 6.23254C82.8422 6.23254 82.9775 6.36724 82.9775 6.53401V92.466C82.9775 92.6328 82.8422 92.7675 82.6748 92.7675Z" fill="#D9D9D6"/>
<path d="M87.0007 14.7699H7.99899C7.83154 14.7699 7.69629 14.6352 7.69629 14.4685C7.69629 14.3017 7.83154 14.167 7.99899 14.167H87.0007C87.1682 14.167 87.3034 14.3017 87.3034 14.4685C87.3034 14.6352 87.1682 14.7699 87.0007 14.7699Z" fill="#D9D9D6"/>
<path d="M87.0007 28.783H7.99899C7.83154 28.783 7.69629 28.6483 7.69629 28.4815C7.69629 28.3148 7.83154 28.1801 7.99899 28.1801H87.0007C87.1682 28.1801 87.3034 28.3148 87.3034 28.4815C87.3034 28.6483 87.1682 28.783 87.0007 28.783Z" fill="#D9D9D6"/>
<path d="M87.0007 42.7939H7.99899C7.83154 42.7939 7.69629 42.6592 7.69629 42.4924C7.69629 42.3256 7.83154 42.1909 7.99899 42.1909H87.0007C87.1682 42.1909 87.3034 42.3256 87.3034 42.4924C87.3034 42.6592 87.1682 42.7939 87.0007 42.7939Z" fill="#D9D9D6"/>
<path d="M87.0007 56.807H7.99899C7.83154 56.807 7.69629 56.6723 7.69629 56.5056C7.69629 56.3388 7.83154 56.2041 7.99899 56.2041H87.0007C87.1682 56.2041 87.3034 56.3388 87.3034 56.5056C87.3034 56.6723 87.1682 56.807 87.0007 56.807Z" fill="#D9D9D6"/>
<path d="M87.0007 70.82H7.99899C7.83154 70.82 7.69629 70.6853 7.69629 70.5185C7.69629 70.3517 7.83154 70.217 7.99899 70.217H87.0007C87.1682 70.217 87.3034 70.3517 87.3034 70.5185C87.3034 70.6853 87.1682 70.82 87.0007 70.82Z" fill="#D9D9D6"/>
<path d="M87.0007 84.831H7.99899C7.83154 84.831 7.69629 84.6963 7.69629 84.5295C7.69629 84.3627 7.83154 84.228 7.99899 84.228H87.0007C87.1682 84.228 87.3034 84.3627 87.3034 84.5295C87.3034 84.6963 87.1682 84.831 87.0007 84.831Z" fill="#D9D9D6"/>
<path d="M73.1601 29.9097C70.5946 29.6767 68.4392 33.2045 64.1799 39.3024C59.9205 45.4002 57.8746 44.3333 57.9948 40.4676C58.0764 37.8314 58.538 33.568 60.7728 27.5001C61.7732 24.7847 63.5229 18.7746 64.9162 15.6957C67.3765 10.25 66.6122 7.87457 65.5818 6.9723C64.5749 6.09141 63.042 7.16045 62.4366 7.99431C61.9343 8.68705 61.5242 9.476 61.112 10.2243C60.6827 11.0026 60.279 11.7937 59.8926 12.5955C59.2765 13.8719 58.7183 15.1719 58.1064 16.4825C56.082 20.8143 52.808 32.2167 52.1726 33.1639C52.1726 33.1639 52.9841 24.464 54.3688 18.084C56.4856 8.33426 57.2799 2.63411 53.6346 2.82227C50.8823 2.96338 49.0876 13.5598 48.158 17.1731C47.6062 19.3155 46.4641 28.5136 45.7192 32.531C45.6762 32.7577 45.3563 32.7641 45.2962 32.5396C44.1627 28.2826 44.942 20.1729 45.0923 16.2324C45.2211 12.8136 45.8243 9.08259 44.6822 7.30157C43.8557 6.01443 41.93 5.90112 41.0111 7.74629C39.3903 11.0069 38.8707 19.3091 38.9652 24.2844C39.0468 28.5798 39.6543 33.4803 39.3194 36.8756C39.3001 37.0702 39.0317 37.1194 38.9566 36.9398C37.3679 33.228 36.8656 29.0844 35.7256 25.2295C35.2125 23.4955 34.6887 21.4792 32.9497 20.5706C32.6062 20.391 32.2134 20.2605 31.8334 20.3375C31.3396 20.4359 30.9682 20.872 30.805 21.3467C30.5152 22.1805 30.6419 23.1747 30.6848 24.0385C30.7514 25.3513 30.9617 26.6769 31.1356 27.9748C31.3138 29.3089 31.5564 30.6367 31.8999 31.9388C32.9218 35.8173 34.3881 41.6564 34.6801 42.9435C35.2103 45.2826 35.9424 56.6466 35.586 61.9896C35.3499 65.5068 31.3332 86.1458 30.6204 90.6336C33.0914 92.0106 37.4023 92.8273 40.4723 93.4367C43.042 93.9477 45.6054 94.1059 48.1687 94.123C48.4972 89.8917 50.7127 67.8437 54.8948 63.73C58.6904 59.9969 62.3658 57.196 63.9308 53.944C65.4959 50.692 66.7088 47.487 69.9935 42.1097C76.5843 31.3209 75.7277 30.1406 73.1623 29.9076L73.1601 29.9097Z" fill="#1690FF"/>
<path d="M0 12.5313H2.25419V2.24499H12.5827V0H0V12.5313Z" fill="#1690FF"/>
<path d="M82.4175 0V2.24499H92.746V12.5313H95.0001V0H82.4175Z" fill="#1690FF"/>
<path d="M92.746 96.7529H82.4175V99H95.0001V86.4666H92.746V96.7529Z" fill="#1690FF"/>
<path d="M2.25419 86.4666H0V99H12.5827V96.7529H2.25419V86.4666Z" fill="#1690FF"/>
</g>
<defs>
<clipPath id="clip0_473_356">
<rect width="95" height="99" fill="white"/>
</clipPath>
</defs>
</svg>
