<svg width="105" height="99" viewBox="0 0 105 99" fill="none" xmlns="http://www.w3.org/2000/svg">
<g clip-path="url(#clip0_476_102)">
<path d="M63.158 75.0176H6.19315V5.26098H51.9174V28.3826C51.9174 31.2587 54.2575 33.5916 57.1425 33.5916H83.3004V57.6705C83.9613 57.6126 84.6297 57.577 85.3056 57.577C86.4146 57.577 87.5043 57.6601 88.5716 57.8144V32.3732C88.5716 30.1412 86.757 28.3307 84.5166 28.3307H59.5466C58.2485 28.3307 57.1946 27.2814 57.1946 25.9858V4.04257C57.1946 1.81055 55.38 0 53.1396 0H3.15191C1.91785 0 0.916016 0.998771 0.916016 2.22905V78.0481C0.916016 79.2798 1.91785 80.2771 3.15191 80.2771H62.5327C62.5327 78.4666 62.7531 76.7065 63.1565 75.0161L63.158 75.0176Z" fill="#1690FF"/>
<path d="M60.3296 25.2023H85.3041L60.3296 4.06335V25.2023Z" fill="#1690FF"/>
<path d="M42.7939 39.332C45.3581 39.332 47.4369 37.2596 47.4369 34.7032C47.4369 32.1468 45.3581 30.0745 42.7939 30.0745C40.2296 30.0745 38.1509 32.1468 38.1509 34.7032C38.1509 37.2596 40.2296 39.332 42.7939 39.332Z" fill="#1690FF"/>
<path d="M70.3913 63.1452L63.1402 49.5438C62.7681 48.8448 61.8705 48.6192 61.2095 49.0615L51.6943 55.4222C50.9515 55.9193 49.9377 55.5646 49.6683 54.7128L46.6315 45.0798C46.3963 44.3318 45.5672 43.9459 44.8407 44.2457L37.0612 47.4513C36.4792 47.6917 35.8093 47.4943 35.449 46.9808L30.352 39.6882C29.7551 38.8348 28.4526 38.958 28.0283 39.9078L15.2381 68.4893C14.8422 69.3738 15.4912 70.3696 16.4618 70.3696H64.8194C66.1726 67.5988 68.0795 65.1472 70.3883 63.1467L70.3913 63.1452Z" fill="#1690FF"/>
<path d="M85.3043 61.5542C74.9316 61.5542 66.5239 69.9362 66.5239 80.2771C66.5239 90.618 74.9316 98.9999 85.3043 98.9999C95.677 98.9999 104.085 90.618 104.085 80.2771C104.085 69.9362 95.677 61.5542 85.3043 61.5542ZM94.4593 79.2234C93.2892 80.3082 91.4597 80.24 90.373 79.0735L88.1952 76.7376V91.1522C88.1952 92.7446 86.9001 94.0343 85.3043 94.0343C83.7085 94.0343 82.4134 92.7446 82.4134 91.1522V76.7376L80.2356 79.0735C79.6654 79.6849 78.8928 79.9936 78.1173 79.9936C77.4131 79.9936 76.706 79.7384 76.1493 79.2234C74.9793 78.14 74.9123 76.3161 75.999 75.1497L83.186 67.44C83.7323 66.8523 84.5004 66.5199 85.3043 66.5199C86.1081 66.5199 86.8748 66.8538 87.4226 67.44L94.6096 75.1497C95.6963 76.3161 95.6293 78.14 94.4593 79.2219V79.2234Z" fill="#1690FF"/>
</g>
<defs>
<clipPath id="clip0_476_102">
<rect width="103.168" height="99" fill="white" transform="translate(0.916016)"/>
</clipPath>
</defs>
</svg>
